<svg xmlns="http://www.w3.org/2000/svg" version="1.1" xmlns:xlink="http://www.w3.org/1999/xlink" width="1081" height="746"><svg width="1081" height="746" viewBox="0 0 1081 746" fill="none" xmlns="http://www.w3.org/2000/svg">
<path d="M754.12 43.3399V16.4399H880.88V43.3399H833.63V170.77H801.37V43.3399H754.12Z" fill="#EF91E5"></path>
<path d="M1028.88 16.4399L986.38 120.13H984.56L942.07 16.4399H901.83V170.76H933.46V69.9399H934.76L974.69 170.02H996.24L1036.18 70.3099H1037.46V170.76H1069.11V16.4399H1028.88Z" fill="#EF91E5"></path>
<path d="M754.48 470.14C740.58 383.06 654.04 347.17 556.14 327.29C550.59 326.13 545.01 325.09 539.43 324.05C521.64 343.88 500.65 392.3 551.22 497.82L550.8 497.94C555.77 504.83 558.16 512.42 555.85 520.2C552.88 522.36 549.92 524.4 546.95 526.36C541.75 518.16 536.59 509.99 531.58 501.75C531.58 501.75 531.54 501.71 531.5 501.63C529.11 498.43 520.1 486.07 510.55 468.51C489.25 429.38 465.14 364.56 505.43 318.35C512.56 310.15 521.72 302.52 533.35 295.7C534.31 295.01 535.31 294.35 536.32 293.66C539.29 291.62 542.41 289.54 545.64 287.46C547.53 286.27 549.41 285.03 551.38 283.84C553.92 282.18 556.54 280.6 559.2 278.99C563.86 276.14 568.75 273.25 573.72 270.4C585.35 263.7 597.64 257 610.12 250.41L610.58 250.18L644.51 234.16L667.89 223.15L670.93 221.69L746.07 186.22C703.67 120.48 629.68 65.75 556.16 39.87C480.76 13.33 363.02 3.31997 258.15 23.42C247.1 25.58 236.24 28 225.53 30.81C221.14 31.97 216.75 33.16 212.4 34.43C200.96 37.82 189.79 41.59 179.01 45.83C92.2396 79.81 28.7296 142.35 31.7296 244.07C34.7296 344.74 99.6296 389.34 183.47 412.41C198.07 416.42 213.24 419.8 228.72 422.69C255.87 402.32 274.86 380.4 276.98 366.61C277.48 363.37 276.9 361.22 274.94 358.68C274.29 358.29 265.77 352.98 255.88 343.35C246.37 334.03 233 321.4 229.84 304.03C229.72 303.49 229.8 303.34 229.92 303.3C253.22 314.74 279.14 325.1 293.51 343.59C313.96 369.97 286.23 403.75 259.62 427.09C250.3 435.25 241.1 442.15 234.2 447C203.9 468.33 173.32 484.35 139.09 498.24C117.1 507.17 95.1496 516.19 73.2196 525.26L12.0996 551.56C37.7896 619.69 110.27 667.49 183.49 695.91C210.53 706.42 237.64 714.28 262.52 719.52C437.14 756.42 795.12 724.49 754.49 470.14H754.48ZM508.65 224.37C510.81 220.56 513.04 216.78 515.24 213.01C515.36 213.05 515.47 213.13 515.59 213.16C522.14 216.63 528.49 220.36 534.65 224.37C535.04 224.6 535.42 224.83 535.81 225.1C537.08 225.91 538.35 226.76 539.58 227.6C546.32 232.14 552.75 237 558.91 242.24C552.13 246.71 546.39 250.4 542.7 252.52C525.02 262.57 506.54 271.82 487.28 278.36C490.17 258.8 498.95 241.39 508.65 224.36V224.37ZM361.91 179C390.56 178.04 419.76 180.96 447.91 187.82C455.54 189.63 463.12 191.79 470.52 194.21C465.47 204.76 460.12 215.39 453.81 224.37C447.8 232.84 440.98 239.89 432.74 244.17C413.1 254.38 390.34 241.28 371.77 224.37C360.52 214.13 350.82 202.49 344.27 193.83C341.15 189.63 338.03 185.36 335.03 181.04C343.89 179.96 352.9 179.31 361.91 179ZM304.37 285.53C301.37 284.26 298.28 282.83 295.17 281.26C295.05 281.18 294.94 281.18 294.82 281.11C285.46 276.33 275.68 270.6 265.97 265.13C255.96 259.43 246.02 254.08 236.58 250.26C239.01 241.98 241.7 234.93 244.55 228.92C245.32 227.34 246.09 225.84 246.86 224.38C260.69 198.58 277.63 195.03 287.49 191.37C287.64 191.29 287.72 191.29 287.88 191.22C294.43 202.12 300.71 213.17 306.6 224.38C317.85 245.79 327.55 267.98 334.6 291.35C334.75 291.89 334.91 292.43 335.1 292.93C335.1 293.05 335.14 293.12 335.18 293.2C335.33 293.7 335.49 294.2 335.64 294.74C325.28 292.51 314.15 289.73 304.37 285.54V285.53ZM331.48 458C328.01 466.13 322.85 472.06 319.04 479.14C307.68 500.01 297.16 521.43 286.53 542.76C279.17 540.03 271.93 537.02 264.81 533.79C258.99 531.17 253.26 528.44 247.59 525.59C242.01 522.82 236.57 519.89 231.18 516.85C228.91 515.54 226.79 514.04 224.75 512.42C258.83 490.12 293.57 469.13 331.2 454.03C334.2 454.95 332.28 456.11 331.47 458H331.48ZM488.43 556.94C446.03 569.15 400.85 569.88 356.71 562.22C348.74 560.83 340.8 559.18 332.95 557.25C352.82 518.12 376.2 464.32 401.35 454.96C432.35 443.41 474.33 492.43 490.55 515.12C496.87 524.02 503.88 536.61 511.04 549.28C503.61 552.21 496.06 554.79 488.43 556.94Z" fill="#EF91E5"></path>
</svg><style>@media (prefers-color-scheme: light) { :root { filter: none; } }
@media (prefers-color-scheme: dark) { :root { filter: none; } }
</style></svg>