<svg width="224" height="87" viewBox="0 0 224 87" fill="none" xmlns="http://www.w3.org/2000/svg">
<path d="M147.198 25.365C145.705 25.1584 147.297 22.8632 147.818 22.3312C149.885 20.2264 154.338 19.9662 157.197 20.0322C160.203 20.1001 164.735 20.789 165.627 23.9204C166.012 25.2732 164.841 24.9173 163.623 24.9402C161.928 24.9737 160.234 25.0177 158.538 25.0742C154.855 25.1966 150.836 25.8625 147.197 25.365M175.139 23.3348C175.139 19.1415 169.019 15.1624 164.956 14.1368C154.29 11.4426 137.521 14.4324 136.052 26.3179C133.612 45.977 163.004 48.1172 174.723 36.579L165.959 32.8439C160.941 37.0669 146.767 37.6055 146.195 29.7727L175.139 29.4034V23.3358V23.3348Z" fill="#FEEFED"/>
<path d="M1.49304 36.0288L9.07151 33.0763C10.2475 32.9462 10.6557 34.0407 11.5441 34.4942C16.2555 36.8985 22.511 37.7127 27.1484 34.6904C27.4836 33.6714 25.7291 32.7405 24.8471 32.4219C18.1919 30.0234 2.74202 32.6515 2.42158 22.8699C2.08316 12.5744 19.3975 11.6799 27.1642 14.154C30.633 15.26 34.1251 17.5944 36.1239 20.4015L28.1858 23.7922C25.0808 20.5259 19.4758 19.3959 14.9156 20.3718C11.9058 21.0157 11.193 23.2315 14.5465 24.4322C20.1441 26.4366 35.207 25.1058 36.5226 32.554C38.4399 43.4101 21.5496 44.7734 13.3102 43.1986C8.95412 42.3672 3.15552 40.0117 1.4941 36.0298" fill="#FEEFED"/>
<path d="M49.1826 13.5933V28.4859C49.1826 28.9959 49.999 31.6585 50.3248 32.2363C53.0998 37.1568 63.3687 37.6869 66.8185 33.3634C67.2341 32.8419 68.3403 30.429 68.3403 29.9564V13.5933H78.1227V43.3775H68.3403L69.5597 37.1262C63.2386 45.4096 45.9105 45.9751 41.2403 36.0183C40.9019 35.2979 39.8084 32.3588 39.8084 31.7953V13.5943H49.1837L49.1826 13.5933Z" fill="#FEEFED"/>
<path d="M190.378 13.7742L189.159 19.6571C192.621 15.5432 198.193 13.7914 203.829 13.7742V22.2317H197.104C194.132 22.2317 190.378 26.0204 190.378 28.6658V43.5584H180.596V13.7742H190.378Z" fill="#FEEFED"/>
<path d="M92.7974 13.5933H83.015V43.3775H92.7974V13.5933Z" fill="#FEEFED"/>
<path d="M86.5737 1.17774C96.1351 -0.372173 96.6258 13.1724 86.5039 11.7296C80.3975 10.859 80.2209 2.20815 86.5737 1.17774Z" fill="#FEEFED"/>
<path d="M108.046 26.7456C104.684 25.1211 106.953 22.0423 110.249 21.8213C112.518 21.6739 115.3 22.8699 116.744 24.3901C114.574 26.7666 111.473 28.3988 108.045 26.7456M127.002 23.6525C129.425 19.2448 131.262 14.0927 132.755 7.48552L132.951 6.63593H123.2V7.33722C123.192 8.61351 120.932 15.944 119.935 17.6939C115.676 15.7527 111.196 15.1844 106.292 15.9737V0.863934H97.5194V43.5402H106.292V32.8218C109.507 33.4495 112.934 33.7814 116.475 32.6745C116.867 32.5559 117.528 32.2239 118.581 31.6996C119.193 31.3896 120.107 30.9323 120.686 30.6816C122.449 34.8894 123.273 39.0598 123.665 43.3048L133.205 43.1795C132.641 36.3503 131.091 29.7431 127.003 23.6534" fill="#FEEFED"/>
<path d="M152.069 63.2356C149.891 69.5768 137.087 69.9538 134.501 63.9665C132.607 59.6115 135.024 53.6539 140.523 52.8272C148.234 51.661 154.632 55.773 152.069 63.2365M158.557 49.6231C152.673 43.2522 139.235 44.3008 133.506 50.5531C133.489 48.6999 133.44 46.8543 133.334 45.0241L123.794 44.9648C123.99 47.8656 124.007 50.8124 124.015 53.8309C124.023 60.1645 124.031 66.499 124.047 72.8326C124.047 76.8777 124.056 80.9238 124.064 84.9688H133.701C133.685 80.1478 133.643 75.3201 133.602 70.4991C139.184 75.9181 150.159 76.9514 156.663 72.5293C163.559 67.8413 163.909 55.4095 158.556 49.6222" fill="#FEEFED"/>
<path d="M97.0139 74.9882C92.6567 74.1539 86.8624 71.7993 85.1978 67.8203L92.7783 64.8678C93.9543 64.7348 94.3615 65.8274 95.2509 66.2857C99.9602 68.6842 106.218 69.5041 110.853 66.477C111.188 65.459 109.434 64.5281 108.553 64.2115C101.894 61.812 86.4467 64.4401 86.1284 54.6594C85.9 47.8532 93.3917 45.1513 100.743 44.826C101.959 44.7667 103.167 44.7744 104.333 44.848C106.797 44.981 109.091 45.3723 110.869 45.9406C114.337 47.0476 117.83 49.3801 119.829 52.1929L111.888 55.5817C108.788 52.3106 103.182 51.1817 98.6203 52.1556C95.6094 52.8052 94.8998 55.0201 98.2533 56.2237C103.851 58.2242 118.906 56.8953 120.229 64.3435C122.147 75.1958 105.255 76.561 97.0139 74.9882Z" fill="#FEEFED"/>
<path d="M190.361 45.3809C190.361 45.3809 189.143 50.8937 189.142 50.8965C189.282 50.2641 190.94 49.2816 191.482 48.8979C192.369 48.2722 193.32 47.723 194.316 47.2514C196.312 46.3061 198.491 45.6727 200.72 45.3781C205.026 44.8098 209.662 45.5216 213.165 47.9594C216.97 50.6076 218.814 55.0067 218.926 59.2489C219.066 64.5463 218.894 69.8639 218.894 75.1652H209.112C209.112 69.883 209.182 64.597 209.11 59.3158C209.103 58.8298 209.093 58.34 208.99 57.8635C207.347 50.2823 192.867 50.4335 190.605 57.5707C190.328 58.4481 190.33 59.3761 190.335 60.2888C190.361 65.2476 190.362 70.2054 190.362 75.1652H180.58V45.3809H190.362H190.361Z" fill="#FEEFED"/>
<path d="M175.687 45.3809H165.904V75.1652H175.687V45.3809Z" fill="#FEEFED"/>
<path d="M104.333 44.8476L100.743 44.8254C101.959 44.7656 103.167 44.7733 104.333 44.8476Z" fill="#FEEFED"/>
<path d="M45.8322 48.8663C45.8047 48.6138 45.6852 48.4157 45.4737 48.2751C45.2633 48.1354 44.9767 48.0646 44.6139 48.0646C44.3686 48.0646 44.1613 48.0962 43.9921 48.1574C43.8229 48.2186 43.6938 48.3047 43.605 48.4138C43.5162 48.5229 43.4707 48.6463 43.4707 48.785C43.4665 48.8998 43.4929 49.0012 43.5521 49.0864C43.6124 49.1725 43.6928 49.2471 43.7975 49.3084C43.9011 49.3696 44.0217 49.4241 44.1592 49.4691C44.2956 49.5141 44.4415 49.5523 44.597 49.5839L45.2368 49.7226C45.5467 49.7858 45.8322 49.869 46.0913 49.9742C46.3515 50.0795 46.5757 50.2086 46.7671 50.3617C46.9564 50.5158 47.1045 50.6956 47.2102 50.9032C47.316 51.1108 47.3699 51.3481 47.372 51.617C47.3689 52.0111 47.2589 52.3527 47.0389 52.6416C46.82 52.9296 46.5048 53.1525 46.0934 53.3113C45.6821 53.4692 45.1861 53.5486 44.6065 53.5486C44.027 53.5486 43.532 53.4692 43.1058 53.3094C42.6807 53.1497 42.3486 52.9133 42.1107 52.5995C41.8738 52.2867 41.749 51.8973 41.7374 51.4333H43.1936C43.2105 51.6495 43.2793 51.8294 43.4009 51.9729C43.5225 52.1164 43.6864 52.2245 43.8916 52.2972C44.0957 52.369 44.3294 52.4063 44.5885 52.4063C44.8476 52.4063 45.0644 52.3728 45.2548 52.3049C45.4431 52.2379 45.5901 52.1441 45.6948 52.0255C45.7984 51.9059 45.8513 51.7681 45.8513 51.6131C45.8513 51.4687 45.8037 51.3472 45.7096 51.2486C45.6154 51.1501 45.479 51.0668 45.2992 50.998C45.1205 50.9281 44.9005 50.865 44.6404 50.8085L43.8652 50.6315C43.2655 50.4995 42.7907 50.2938 42.4438 50.0125C42.0948 49.7312 41.9224 49.3524 41.9246 48.8769C41.9224 48.4856 42.0377 48.1459 42.2714 47.8541C42.5041 47.5633 42.8245 47.3356 43.2328 47.171C43.6399 47.0084 44.1042 46.9261 44.6234 46.9261C45.1427 46.9261 45.6133 47.0084 46.0088 47.171C46.4033 47.3346 46.7121 47.5623 46.9321 47.8541C47.1521 48.1469 47.2652 48.4836 47.2726 48.8673H45.8291L45.8322 48.8663Z" fill="#FEEFED"/>
<path d="M48.1092 48.1364V47.0131H53.9585V48.1364H51.7779V53.4558H50.2888V48.1364H48.1092Z" fill="#FEEFED"/>
<path d="M59.3246 47.0131H60.8306V51.197C60.8306 51.6677 60.7068 52.0781 60.4594 52.4302C60.2129 52.7823 59.8682 53.0578 59.4251 53.2539C58.983 53.4501 58.4659 53.5486 57.8779 53.5486C57.2898 53.5486 56.7706 53.4501 56.3275 53.2539C55.8844 53.0578 55.5406 52.7832 55.2942 52.4302C55.0489 52.0781 54.9262 51.6677 54.9262 51.197V47.0131H56.4311V51.0802C56.4311 51.3261 56.4914 51.5443 56.6109 51.7356C56.7304 51.926 56.8986 52.0762 57.1175 52.1853C57.3343 52.2943 57.5891 52.3489 57.8779 52.3489C58.1666 52.3489 58.4246 52.2943 58.6414 52.1853C58.8582 52.0762 59.0264 51.926 59.1459 51.7356C59.2654 51.5452 59.3256 51.3271 59.3256 51.0802V47.0131H59.3246Z" fill="#FEEFED"/>
<path d="M63.5739 52.2886H64.531C64.9762 52.2886 65.3506 52.2159 65.6562 52.0724C65.9608 51.9289 66.1903 51.7059 66.3447 51.4036C66.498 51.0994 66.5763 50.7081 66.5763 50.2287C66.5763 49.7494 66.498 49.3629 66.3447 49.0615C66.1903 48.7592 65.9608 48.5372 65.6572 48.3947C65.3537 48.2521 64.9794 48.1813 64.5341 48.1813H63.5739V52.2896V52.2886ZM64.5923 53.4558H62.0668V47.0131H64.6124C65.3283 47.0131 65.9449 47.1413 66.462 47.3987C66.9792 47.6551 67.3779 48.0244 67.656 48.5047C67.9352 48.985 68.0748 49.56 68.0748 50.2287C68.0748 50.8975 67.9352 51.4763 67.656 51.9585C67.3768 52.4407 66.9771 52.81 66.4568 53.0693C65.9364 53.3267 65.3135 53.4568 64.5912 53.4568" fill="#FEEFED"/>
<path d="M70.6944 47.0131H69.1885V53.4558H70.6944V47.0131Z" fill="#FEEFED"/>
<path d="M76.953 50.2345C76.953 49.7791 76.8779 49.3954 76.7288 49.0826C76.5797 48.7697 76.3693 48.5324 76.0975 48.3717C75.8267 48.21 75.5084 48.1297 75.1446 48.1297C74.7808 48.1297 74.4635 48.21 74.1928 48.3717C73.921 48.5324 73.7106 48.7707 73.5614 49.0826C73.4123 49.3954 73.3362 49.7791 73.3362 50.2345C73.3362 50.6899 73.4113 51.0726 73.5614 51.3864C73.7106 51.6983 73.92 51.9356 74.1928 52.0972C74.4635 52.2589 74.7819 52.3393 75.1446 52.3393C75.5073 52.3393 75.8267 52.2589 76.0975 52.0972C76.3693 51.9365 76.5787 51.6983 76.7288 51.3864C76.8779 51.0735 76.953 50.6899 76.953 50.2345ZM78.4801 50.2345C78.4801 50.9367 78.3331 51.5347 78.0402 52.0274C77.7473 52.5211 77.3486 52.8961 76.8441 53.1544C76.3396 53.4147 75.7739 53.5438 75.1446 53.5438C74.5154 53.5438 73.9432 53.4137 73.4409 53.1535C72.9385 52.8933 72.5409 52.5173 72.248 52.0245C71.9561 51.5309 71.8101 50.9348 71.8101 50.2345C71.8101 49.5341 71.9561 48.9343 72.248 48.4406C72.5409 47.9479 72.9385 47.5719 73.4409 47.3136C73.9432 47.0543 74.5122 46.9242 75.1446 46.9242C75.777 46.9242 76.3386 47.0543 76.8441 47.3136C77.3486 47.5719 77.7473 47.9479 78.0402 48.4406C78.3331 48.9343 78.4801 49.5313 78.4801 50.2345Z" fill="#FEEFED"/>
<path d="M207.973 15.6551V14.5319H213.822V15.6551H211.643V20.9746H210.154V15.6551H207.973Z" fill="#FEEFED"/>
<path d="M220.652 14.5309L218.69 18.8611H218.607L216.646 14.5309H214.789V20.9746H216.248V16.7649H216.309L218.151 20.943H219.146L220.988 16.7812H221.048V20.9746H222.508V14.5309H220.652Z" fill="#FEEFED"/>
</svg>
